<?xml version="1.0" standalone="no"?><!DOCTYPE svg PUBLIC "-//W3C//DTD SVG 1.1//EN" "http://www.w3.org/Graphics/SVG/1.1/DTD/svg11.dtd"><svg class="icon" width="24" height="24" viewBox="0 0 1024 1024" version="1.1" xmlns="http://www.w3.org/2000/svg" fill="currentColor"><path d="M871.231 912.471H512c-54.047 0-106.497-10.593-155.893-31.486-47.692-20.172-90.517-49.042-127.283-85.809-36.767-36.767-65.637-79.59-85.809-127.283-20.892-49.396-31.486-101.846-31.486-155.893s10.594-106.497 31.486-155.893c20.172-47.692 49.042-90.516 85.809-127.283s79.591-65.637 127.283-85.809c49.396-20.893 101.846-31.486 155.893-31.486s106.497 10.594 155.893 31.486c47.692 20.172 90.517 49.042 127.283 85.809s65.637 79.591 85.809 127.283c20.893 49.396 31.486 101.846 31.486 155.893 0 54.627-10.814 107.596-32.143 157.436-15.689 36.664-36.515 70.404-62.111 100.694l79.178 79.177a37.002 37.002 0 0 1-26.164 63.164zM512 185.529c-180.017 0-326.471 146.454-326.471 326.471S331.983 838.471 512 838.471h269.905l-41.185-41.184a37.002 37.002 0 0 1 0.216-52.54C803.832 682.874 838.47 600.216 838.47 512c0.001-180.017-146.453-326.471-326.47-326.471z" /><path d="M488.475 714.725a37.003 37.003 0 0 1-36.116-45.067l33.023-147.827c-13.507-0.965-25.984-9.336-31.546-22.69-7.857-18.864 1.065-40.525 19.929-48.382l48.018-20a37 37 0 0 1 50.337 42.222l-33.082 148.09c12.283 1.718 23.42 9.571 28.779 21.758 8.227 18.706-0.269 40.539-18.975 48.765l-45.479 20a36.986 36.986 0 0 1-14.888 3.131zM497.234 395.286c-15.478 0-29.905-9.788-35.085-25.275-6.48-19.379 3.976-40.344 23.354-46.825l35.882-12c19.376-6.481 40.344 3.975 46.825 23.354 6.48 19.379-3.976 40.344-23.354 46.825l-35.882 12a36.952 36.952 0 0 1-11.74 1.921z" /></svg>