<?xml version="1.0" standalone="no"?><!DOCTYPE svg PUBLIC "-//W3C//DTD SVG 1.1//EN" "http://www.w3.org/Graphics/SVG/1.1/DTD/svg11.dtd"><svg class="icon" width="15px" height="15.00px" viewBox="0 0 1024 1024" version="1.1" xmlns="http://www.w3.org/2000/svg"><path d="M512.006 1022.99c-68.835 0-135.628-13.488-198.523-40.091-60.734-25.688-115.271-62.456-162.098-109.283C104.558 826.789 67.79 772.252 42.102 711.519 15.5 648.623 2.011 581.83 2.011 512.996c0-68.835 13.489-135.628 40.091-198.523 25.688-60.734 62.456-115.271 109.283-162.098 46.826-46.827 101.364-83.595 162.098-109.283C376.378 16.488 443.171 3 512.006 3s135.627 13.488 198.522 40.091c60.733 25.688 115.271 62.457 162.098 109.283s83.595 101.364 109.283 162.098C1008.512 377.368 1022 444.161 1022 512.996c0 68.834-13.488 135.627-40.091 198.523-25.688 60.733-62.457 115.271-109.283 162.098s-101.364 83.595-162.098 109.283C647.633 1009.502 580.841 1022.99 512.006 1022.99zM512.006 67C266.083 67 66.011 267.073 66.011 512.996c0 245.922 200.073 445.995 445.995 445.995C757.928 958.99 958 758.918 958 512.996 958 267.073 757.928 67 512.006 67z" fill="#2c2c2c" /><path d="M260.001 791c-8.266 0-16.526-3.182-22.788-9.532-12.408-12.585-12.265-32.846 0.319-45.254l500-493c12.585-12.408 32.847-12.265 45.254 0.319 12.408 12.584 12.266 32.845-0.318 45.254l-500 493C276.233 787.933 268.115 791 260.001 791z" fill="#000000" /><path d="M767 799c-8.2 0-16.399-3.132-22.649-9.395l-505-506c-12.484-12.509-12.464-32.771 0.045-45.255 12.509-12.484 32.771-12.465 45.255 0.045l505 506c12.484 12.51 12.465 32.771-0.044 45.255C783.358 795.884 775.179 799 767 799z" fill="#000000" /></svg>