<?xml version="1.0" standalone="no"?><!DOCTYPE svg PUBLIC "-//W3C//DTD SVG 1.1//EN" "http://www.w3.org/Graphics/SVG/1.1/DTD/svg11.dtd"><svg class="success" width="14px" height="14.00px" viewBox="0 0 1024 1024" version="1.1" xmlns="http://www.w3.org/2000/svg"><path d="M652.8 264.32c-41.6-39.04-96-58.88-153.6-55.04-104.32 6.4-188.8 93.44-192 197.76-2.56 69.12 30.08 134.4 86.4 174.08 1.92 3.2 10.24 17.92 34.56 78.08 7.04 17.92 24.32 29.44 44.16 29.44 0 0 0 0 0 0l80.64 0c19.2 0 36.48-11.52 44.16-29.44 24.96-61.44 33.28-75.52 35.2-78.72 53.76-38.4 85.76-101.12 85.76-167.04C717.44 357.76 693.76 303.36 652.8 264.32zM611.84 556.16c-4.48 3.2-10.88 7.68-45.44 92.16-2.56 5.76-7.68 9.6-14.08 9.6l-80.64 0c0 0 0 0 0 0-6.4 0-12.16-3.84-14.08-9.6-33.92-83.84-40.32-88.32-44.8-91.52C364.8 522.88 337.28 467.2 339.2 408.32c3.2-88.32 74.24-161.92 161.92-167.04 3.84 0 7.68-0.64 10.88-0.64 44.16 0 86.4 16.64 118.4 46.72 35.2 33.28 54.4 78.08 54.4 126.08C685.44 470.4 657.92 523.52 611.84 556.16z" fill="#ffffff" /><path d="M583.68 695.68l-142.72 0c-8.96 0-16 7.04-16 16s7.04 16 16 16l142.72 0c8.96 0 16-7.04 16-16S592.64 695.68 583.68 695.68z" fill="#ffffff" /><path d="M576.64 734.08l-129.28 0c-8.96 0-16 7.04-16 16s7.04 16 16 16l129.28 0c8.96 0 16-7.04 16-16S585.6 734.08 576.64 734.08z" fill="#ffffff" /><path d="M552.32 771.84l-80.64 0c-8.96 0-16 7.04-16 16s7.04 16 16 16l80.64 0c8.96 0 16-7.04 16-16S561.28 771.84 552.32 771.84z" fill="#ffffff" /><path d="M484.48 307.2c-47.36 10.88-83.84 48-93.44 95.36-1.92 8.96 3.84 17.28 12.16 19.2 1.28 0 1.92 0.64 3.2 0.64 7.68 0 14.08-5.12 15.36-12.8 7.04-35.2 34.56-62.72 69.12-70.4 8.32-1.92 14.08-10.24 12.16-19.2S493.44 305.28 484.48 307.2z" fill="#ffffff" /></svg>