<?xml version="1.0" standalone="no"?><!DOCTYPE svg PUBLIC "-//W3C//DTD SVG 1.1//EN" "http://www.w3.org/Graphics/SVG/1.1/DTD/svg11.dtd"><svg class="icon" width="14px" height="14.00px" viewBox="0 0 1024 1024" version="1.1" xmlns="http://www.w3.org/2000/svg"><path d="M365.10714248 552.82142832a7.32857168 7.32857168 0 0 0-1.35 2.5714292l-43.71428496 176.14285664c-2.50714248 10.28571416 0.12857168 21.34285752 7.00714248 29.05714336a25.77857168 25.77857168 0 0 0 26.35714248 7.52142832l158.78571504-47.7c0.32142832 0 0.38571416 0.19285752 0.64285664 0.19285664a6.3 6.3 0 0 0 4.88571416-2.25l424.73571416-467.55c12.6-13.88571416 19.54285752-32.85 19.54285752-53.48571415 0-23.4-9-46.67142832-24.75-64.02857081L897.07142832 89.32142832A79.90714248 79.90714248 0 0 0 838.95714248 62c-18.64285752 0-35.87142832 7.65-48.53571416 21.53571416L365.68571416 551.27857168c-0.38571416 0.38571416-0.32142832 1.02857168-0.64285664 1.54285664z m527.33571504-344.89285664l-47.05714336 46.9285708L769.14285752 177.52142832l46.41428496-46.28571416c7.32857168-7.45714248 21.6-6.3 30.0214292 2.12142832l44.80714248 44.74285752a24.49285752 24.49285752 0 0 1 7.32857168 17.03571416 19.54285752 19.54285752 0 0 1-5.27142832 12.85714336zM415.57142832 569.85714248L730.89285752 254.85714248 801.28571416 326.34285752 486.54285752 640.57142832 415.57142832 569.79285752zM383.42857168 704.85714248l17.55-64.28571416L447.71428584 687.30714248 383.42857168 704.85714248z m547.97142832-302.59285664a31.17857168 31.17857168 0 0 0-30.6 31.5v424.8a39.85714248 39.85714248 0 0 1-39.27857168 40.37142832H162.47857168a39.85714248 39.85714248 0 0 1-39.21428584-40.37142832V165.24285752a39.85714248 39.85714248 0 0 1 39.21428584-40.3714292h450.25714248a31.05 31.05 0 0 0 30.6-31.43571416A31.11428584 31.11428584 0 0 0 612.73571416 62H157.78571416C105.07142832 62 62 106.16428584 62 160.55v702.9C62 917.83571416 105.07142832 962 157.85 962H866.21428584C918.92857168 962 962 917.83571416 962 863.45V433.63571416a31.17857168 31.17857168 0 0 0-30.6-31.37142832z" fill="#ffffff" /></svg>