<?xml version="1.0" standalone="no"?><!DOCTYPE svg PUBLIC "-//W3C//DTD SVG 1.1//EN" "http://www.w3.org/Graphics/SVG/1.1/DTD/svg11.dtd"><svg class="icon" width="14px" height="14.00px" viewBox="0 0 1024 1024" version="1.1" xmlns="http://www.w3.org/2000/svg"><path d="M512 96C282.624 96 96 282.624 96 512s186.624 416 416 416 416-186.624 416-416S741.376 96 512 96z m0 64c194.08 0 352 157.92 352 352s-157.92 352-352 352c-163.488 0-300.832-112.192-340.256-263.488l117.312 50.24A95.68 95.68 0 0 0 384 736a96 96 0 0 0 96-96c0-1.024-0.288-2.016-0.32-3.008l133.696-93.504A127.744 127.744 0 0 0 736 416a128 128 0 0 0-128-128 127.68 127.68 0 0 0-127.424 122.624l-93.568 133.696c-1.024-0.032-1.984-0.32-3.008-0.32-21.216 0-40.64 7.104-56.576 18.752l-166.368-71.328C171.84 306.944 324.864 160 512 160z m96 160a96 96 0 1 1 0 192 96 96 0 0 1 0-192z m0 32a64 64 0 0 0 0 128 64 64 0 0 0 0-128z m-224 224a64 64 0 1 1-58.112 90.496l25.056 10.752a48.096 48.096 0 0 0 63.04-25.184 48 48 0 0 0-25.248-63.008l-23.296-9.984c5.92-1.824 12.064-3.072 18.56-3.072z" /></svg>